# xmcd CD database file
#
# Track frame offsets:
#	150
#	24590
#	44088
#	63012
#
# Disc length: 1287 seconds
#
# Revision: 1
# Processed by: cddbd v1.5PL3 Copyright (c) Steve Scherf et al.
# Submitted via: CDex 1.51
#
DISCID=2e050504
DTITLE=Dub Narcotic Sound System - Hand Clappin'
DYEAR=2003
DGENRE=Indie Rock
TTITLE0=Hand Clappin'
TTITLE1=Petrolbzz (version)
TTITLE2=Sabley Goodness
TTITLE3=Mega-Clash (version)
EXTD=YEAR: 2003
EXTT0=
EXTT1=
EXTT2=
EXTT3=
PLAYORDER=
